<?xml version="1.0" standalone="no"?><!DOCTYPE svg PUBLIC "-//W3C//DTD SVG 1.1//EN" "http://www.w3.org/Graphics/SVG/1.1/DTD/svg11.dtd"><svg t="1506323049046" class="icon" style="" viewBox="0 0 1024 1024" version="1.1" xmlns="http://www.w3.org/2000/svg" p-id="817" xmlns:xlink="http://www.w3.org/1999/xlink" width="64" height="64"><defs><style type="text/css"></style></defs><path d="M446.171429 497.371429C321.828571 497.371429 219.428571 387.657143 219.428571 263.314286S321.828571 29.257143 453.485714 29.257143s234.057143 102.4 234.057143 234.057143-109.714286 234.057143-241.371428 234.057143z m0-409.6c-95.085714 0-175.542857 80.457143-175.542858 175.542857S351.085714 438.857143 446.171429 438.857143s175.542857-80.457143 175.542857-175.542857-73.142857-175.542857-175.542857-175.542857z" fill="#333333" p-id="818"></path><path d="M819.2 906.971429c0-241.371429-168.228571-431.542857-373.028571-431.542858S73.142857 665.6 73.142857 906.971429h746.057143z" fill="#333333" p-id="819"></path><path d="M819.2 928.914286H36.571429v-29.257143C36.571429 650.971429 219.428571 446.171429 438.857143 446.171429s402.285714 204.8 402.285714 453.485714v29.257143h-21.942857zM95.085714 877.714286h694.857143C782.628571 665.6 629.028571 504.685714 438.857143 504.685714c-182.857143 0-336.457143 160.914286-343.771429 373.028572z" fill="#333333" p-id="820"></path><path d="M672.914286 490.057143c-14.628571 0-21.942857-14.628571-21.942857-29.257143s7.314286-29.257143 21.942857-29.257143c73.142857 0 131.657143-58.514286 131.657143-138.971428 0-58.514286-36.571429-109.714286-95.085715-131.657143-7.314286 7.314286-14.628571-14.628571-7.314285-29.257143 0-14.628571 14.628571-21.942857 29.257142-14.628572 80.457143 21.942857 131.657143 95.085714 131.657143 182.857143 0 102.4-80.457143 190.171429-190.171428 190.171429z" fill="#333333" p-id="821"></path><path d="M972.8 833.828571h-65.828571c-14.628571 0-29.257143-14.628571-29.257143-29.257142s14.628571-29.257143 29.257143-29.257143h36.571428c-14.628571-160.914286-131.657143-285.257143-270.628571-285.257143-14.628571 0-29.257143-14.628571-29.257143-29.257143s7.314286-21.942857 21.942857-21.942857c182.857143 0 329.142857 168.228571 329.142857 373.028571v29.257143l-21.942857-7.314286z" fill="#333333" p-id="822"></path></svg>